<?xml version="1.0" encoding="utf-8"?>
<!-- Generator: Adobe Illustrator 23.0.2, SVG Export Plug-In . SVG Version: 6.00 Build 0)  -->
<svg version="1.1" id="Layer_1" xmlns="http://www.w3.org/2000/svg" xmlns:xlink="http://www.w3.org/1999/xlink" x="0px" y="0px"
	 viewBox="0 0 239 39" style="enable-background:new 0 0 239 39;" xml:space="preserve">
<style type="text/css">
	.st0{clip-path:url(#SVGID_2_);}
	.st1{fill:#49797D;}
</style>
<g>
	<defs>
		<rect id="SVGID_1_" width="98" height="39"/>
	</defs>
	<clipPath id="SVGID_2_">
		<use xlink:href="#SVGID_1_"  style="overflow:visible;"/>
	</clipPath>
	<g class="st0">
		<path class="st1" d="M47.8,33.1c0-1.7,0-3.3,0-5c0-1.5,0.3-3.1-0.3-4.6c-0.1-0.4,0.4-0.5,0.1-1c-0.2-0.2,0-0.7-0.1-1.1
			c-0.1-3-0.3-6-0.2-9c-0.5-1.6-0.4-3.4-0.2-5c0.2-1.5,0.1-2.9,0.2-4.5c0.3,0,0.6,0,0.9,0c0.3,0,0.5-0.2,0.8,0
			c0.1,0.1,0.5-0.1,0.7-0.3c0.7-0.5,1.6-0.3,2.4-0.9c0.5,0.6,1-0.1,1.5,0c0.6,0.1,1.2,0,1.7,0c1,0,1.9-0.3,2.9-0.2
			c2.1,0.3,4.2,0,6.3,0.2C65.6,2,66.7,2,67.9,2.1c0.2,0,0.3,0.2,0.6,0.3c-0.1,0.1-0.2,0.3-0.3,0.3c-0.4,0.1-0.6,0.3-0.4,0.8
			c0.1,0.2,0.1,0.4,0.2,0.7c0,0.1,0,0.2,0,0.2c-0.2,2.2,0.4,4.4,0.2,6.6c0,0.5,0.3,0.9,0.3,1.4c0,0.4,0,0.8,0.2,1.3
			c0.2,0.5,0.1,1.1,0,1.8c0.4,0.7,1.3,0.9,2.1,1.4c0.5,0.3,1.1,0.6,1.3,1.4c-0.5,0.4-0.8,1-1.5,1.1c-0.7,0.1-1.2,0.6-1.7,1
			c-0.3-0.4-0.2-1-0.2-1.4c0.5-0.6,1.3-0.4,1.5-1.3c-0.5-0.1-1-0.3-1.5-0.4c0-0.3,0-0.5,0-0.8c0-0.2-0.1-0.4-0.3-0.5
			c-0.7-0.4-1.5-0.8-2.3-1.1c-0.3-0.1-0.7-0.1-0.9-0.4c0,0-0.2,0.1-0.4,0.1c-0.1-0.5-0.5-0.9-1.1-1.1c-1.2-0.5-2.4-1.1-3.6-1.6
			c-0.5-0.2-1-0.8-1.7-0.2c-0.1,0-0.3,0-0.4,0c-0.8-0.4-1.7-0.4-2.5-0.9c-0.5-0.3-1.2-0.5-1.8-0.7c-0.4,0.6-0.5,1.2-0.3,1.8
			c0.8,0.3,1.6,0.5,2.4,0.8c0.2,0.1,0.5,0.2,0.8,0.2c1.1,0.1,3,0.8,4.1,1.5c0.3,0.2,0.6,0.4,0.9,0.5c0.7,0.3,1.5,0.4,2.2,0.7
			c1.2,0.5,2.6,0.6,3.7,1.4c0.1,0.1,0.2,0.1,0.3,0.1c0.4,0,0.6,0.3,0.6,0.7c0,0.2,0,0.4,0,0.6c0.1,0.5-0.2,0.7-0.6,1
			c-0.3,0.2-0.4-0.2-0.6-0.1c-1.2,0.4-2.3,0.7-3.5,1.2c-1.1,0.4-2.2,0.6-3.3,0.8c-0.4,0.1-0.8,0-1.1,0.4c-0.2,0.2-0.6,0.3-0.9,0.4
			c-0.9,0.1-1.8,0.2-2,0.4c-0.6,0.7-1.5,0-2.2,0.4c-0.1,0.1-0.4,0.1-0.6,0.1c-0.5,0.2-1.1,0.2-1.6,0.5c-0.6,0.3-1.3,0.5-1.9,0.7
			c-0.5,0.1-0.7,0.4-0.6,0.9c0.1,0.4,0.2,0.7,0.4,1.2c0.3-0.1,0.6-0.2,0.9-0.2c0.7-0.1,1.3-0.6,2-0.8c0.4-0.1,0.9-0.1,1.3-0.3
			c0.5-0.2,0.9-0.5,1.4-0.4c0.3-0.5,0.9-0.2,1.4-0.3c1.3-0.4,2.5-0.7,3.8-0.9c0.5-0.1,1-0.3,1.4-0.4c0.8-0.3,1.6-0.7,2.5-0.8
			c1.6-0.2,3-0.9,4.3-1.8c0,0.8,0.1,1.7,0,2.5c-0.4,1.8-0.1,3.6-0.2,5.4c0,0.6,0.2,1.2,0.2,1.9c0,0.6,0,1.2,0,1.9
			c0,0.3,0.2,0.7,0.2,1c0,0.4-0.1,0.3-0.6,0.3c-0.9,0-1.4-0.4-1.9-1c-0.2-0.2-0.3-0.7-0.6-0.8c-0.3-0.1-0.4-0.5-0.8-0.7
			c-0.5,0.6-1.3,0.6-1.8,1.2c-0.2,0.3-0.7,0.4-1.2,0.3c-0.4-0.1-0.8,0-0.9,0.5c0,0.1-0.1,0.2-0.1,0.2c-1,0.1-1.7,0.9-2.8,0.8
			c-0.3,0-0.6,0-0.9,0c-1.3,0.1-2.5-0.4-3.6-1c-0.2-0.1-0.4-0.3-0.6-0.5c-0.5-0.5-0.9-0.9-1.4-1.4c-0.7,0.4-1.4,0.9-2.1,1.2
			c-0.5,0.2-0.8,0.6-1.2,0.9C48.1,33.1,47.9,33.1,47.8,33.1z"/>
		<path class="st1" d="M47.8,35.9c-0.8,0-1.6,0.3-2.5,0.3c-0.9,0-1.6-0.4-2.3-0.8c-0.7-0.3-1.2-0.8-1.6-1.5
			c-0.1-0.2-0.3-0.3-0.3-0.4c-1.3,0.3-2.2,1.2-3.4,1.7c-1.2,0.5-2.2,0.9-3.4,0.4c-0.8,0.2-1.6-0.2-2.2-0.5c-0.6-0.3-1.4-0.7-1.8-1.5
			c-0.2-0.4-0.5-0.8-0.8-1.2c-0.3,0.1-0.6,0.4-0.9,0.4c-1,0.1-1.7,0.8-2.4,1.3c-1.2,0.9-2,1.3-3.2,1.4c-0.1,0-0.2,0-0.2,0
			c-1,0.1-1,0.1-2.2-0.2c-0.4-0.1-0.9-0.1-1.4-0.3c-0.4-0.1-0.7-0.3-1.1-0.5c0.1,0.8,0.2,1.6,0.3,2.4c-0.3,0-0.7,0.7-1.2,0.1
			c-0.6,0.5-1.1-0.1-1.6,0c-0.5,0-1,0.1-1.5,0c-0.6-0.1-1.1,0-1.7,0c-0.6,0-1.2,0-1.7,0c-0.6,0-1.2,0-1.7,0c-0.6,0-1.2,0-1.7,0
			s-1.2,0-1.7,0c-0.6,0-1.2,0-1.7,0c-0.6,0-1.2,0-1.7,0c-0.3,0-0.4,0.1-0.6,0.4c-0.1,0.2-0.5,0.2-0.9,0.3c0-0.3,0-0.7,0-1
			c0.1-1.7-0.4-3.3-0.2-5C-0.1,31.2-0.1,30.5,0,30c0.3-1,0.3-2.1,0.2-3.1c-0.1-0.7-0.3-1.5-0.2-2.3c0.5-2.2,0.2-4.4,0.3-6.6
			c0-2.3,0-4.5,0-6.8c0-2.2,0-4.5,0-6.7c0-0.8-0.4-1.6-0.3-2.4c0.1-0.2,0-0.6,0-0.8c0-0.2,0.2-0.4,0.4-0.7c0.4,0.1,0.8,0.3,1.3,0.1
			c0.4-0.2,1.1,0,1.7,0c0.5,0,1.1-0.3,1.4-0.1c0.5,0.2,1-0.2,1.4,0.3c0.5-0.3,1.1,0,1.5-0.2c0.7-0.4,1.4-0.1,2-0.4
			c0.3-0.2,0.9,0,1.3,0c0.6,0,1.4-0.1,1.9,0.1c0.7,0.2,1.3,0.1,1.9,0.1c0.6,0,1.3,0,2,0c0.2,0,0.5,0.2,0.6,0.3
			c0.2,0.3-0.1,0.4-0.4,0.4c0,2.2,0,4.4,0,6.7c0.2-0.1,0.4-0.1,0.5-0.2c0.2,0.2,0.4,0.4,0.7,0.6c-0.4,0.5-0.8,1-1.2,1.6
			c0-0.6-0.1-1.1-0.1-1.7c-0.7,0.5-1.3,1-1.8,1.5c-0.8,0.7-1.4,1.5-2.2,2.2c-0.8,0.6-1.5,1.4-2.1,2.2c-0.7,1-1.8,1.7-2.7,2.6
			c-1,0.9-2.2,1.6-3.1,2.7c-0.5-0.1-0.3,0.5-0.6,0.6C4.2,20,4,20.3,3.7,20.6C4.1,21.3,2.9,22.1,4,23c0.2-0.2,0.5-0.3,0.6-0.5
			c0.4-0.9,1.3-1.2,2-1.7c0.7,0.1,0.8-0.9,1.5-0.8c0.4-0.5,0.8-0.9,1.1-1.4c0.2-0.3,0.5-0.6,0.7-0.9c0.2-0.3,0.6-0.5,0.9-0.7
			c0.3-0.3,0.6-0.7,1-0.9c1.1-0.5,1.6-1.6,2.3-2.5c0.4-0.6,0.8-1.2,1.3-1.7c0.4-0.4,0.8-0.9,1.2-1.4c0.1-0.1,0.2-0.1,0.6-0.3
			c-0.2,0.8,0.2,1.5-0.3,2.3c-0.2,0.3,0,0.7,0.5,0.9c0.1-0.3,0.3-0.6,0.5-1c0.3,0,0.7-0.2,0.9,0.2c0.2,0.4,0.7,0.7,0.7,1.3
			c0,0.4,0,0.9,0,1.3c-0.2,0.1-0.5,0.2-0.6,0.4c-0.3,0.4-0.7,0.5-1.1,0.6c-0.2,0-0.4,0-0.5,0c-0.2,0.1-0.3,0.2-0.5,0.3c0-1,0-2,0-3
			c-0.3,0.1-0.6,0.2-0.8,0.4c-0.7,0.6-1.5,1.3-2.2,1.9c-0.5,0.4-0.9,0.9-1.2,1.5c-0.3,0.4-0.7,0.9-1.3,1.1c-0.3,0.8-1,1.3-1.7,1.8
			c-0.7,0.5-1.4,1-2.1,1.5c-0.7,0.6-1.5,1.2-2.1,1.9c-0.7,0.7-0.7,1.7-0.1,2.4c0.2,0.2,0.5,0.3,0.6,0.2c0.4-0.3,0.8-0.4,1.2-0.6
			C7.9,25.1,8.5,24.6,9,24c0.9-0.8,1.8-1.5,2.9-2.1c0.3-0.2,0.7-0.4,0.8-0.7c0.1-0.4,0.5-0.6,0.7-0.9c0.3-0.3,0.7-0.6,0.9-1
			c0.6-1,1.5-1.7,2.3-2.4c0,0.4,0,0.9,0,1.4c0,0.3-0.3,0.8,0.4,0.9c0,0,0.1,0.4,0.1,0.6c0,1.9,0.1,3.9,0,5.8c0,1.3,0.2,2.6,0.3,3.9
			c0,0.4,0.2,0.9,0.2,1.4c0,0.4,0.2,0.9,0.3,1.4c-0.7,0-1-0.5-1.5-0.7c-0.6-0.3-1.2-0.7-1.3-1.4c0-0.1-0.1-0.3-0.2-0.4
			c-0.4-0.7-0.8-0.8-1.6-0.4c-0.3,0.2-0.7,0.3-1,0.5c-0.4,0.2-0.7,0.5-1.2,0.5c-0.1,0-0.3,0-0.4,0.1c-0.5,0.7-1.3,0.7-1.9,0.9
			c-1.1,0.3-2.1,0.7-3.3,0.7c-1.2,0-2.1-0.5-3-1.2c-0.2-0.1-0.3-0.3-0.5-0.5c-0.2,0.3-0.1,0.5,0.1,0.9c0.5,0.7,0.8,1.4,1.5,2
			c0.5,0.4,1.1,0.8,1.8,0.9c0.5,0.1,0.9,0.4,1.4,0.2c0.9-0.3,2-0.2,2.9-0.7c0.7-0.4,1.5-0.6,2.3-1c0.8-0.3,1.4-0.9,2.1-1.3
			c0.1-0.1,0.1-0.3,0.2-0.5c0.6,0.9,1.1,1.7,1.8,2.4c0.5,0.5,1.2,0.8,1.9,1.3c0.1-0.7,0.1-1.3-0.2-2c0.8,0.3,1.6,0.5,2.4,0.6
			c0.9,0.1,1.5,0.1,2.3,0c1.4-0.2,2.5-0.8,3.4-1.8c0.7-0.1,1.3-0.5,1.9-0.8c0.2-0.1,0.3-0.2,0.5-0.2c0.6,0.2,1.2,0.6,1.6,1.2
			c0.8,0.9,1.7,1.5,3,1.6c0.4,0,0.8,0.2,1.3,0.2c1.5,0.1,2.7-0.4,3.8-1.2c0.5-0.3,1.1-0.7,1.7-1c0.4-0.2,1.1,0.1,1.4,0.5
			c0.9,1.3,1.9,1.9,3.4,1.9c0.4,0,0.8,0,1.2,0c0.7,0.1,1.4-0.2,2-0.5C47.8,34,47.8,34.9,47.8,35.9z M14.6,5.5
			c-0.8,0.7-1.6,1.4-2.4,2c-0.6,0.5-1.3,0.9-1.6,1.7c-0.1,0.2-0.4,0.4-0.6,0.6c-0.2,0.1-0.4,0.3-0.5,0.4c-0.2,0.2-0.3,0.4-0.5,0.6
			c-0.2,0.2-0.5,0.3-0.6,0.6c-0.1,0.2-0.5,0.3-0.7,0.5c-0.3,0.2-0.8,0.4-0.8,0.7C6.7,13.2,5.9,13,6,13.6c-0.8,0.7-1.2,1.8-2.2,2.3
			c-0.5,0.3-0.9,0.8-1.3,1.3C2.3,17.4,2,17.8,2.1,18c0.1,0.6,0.3,1.1,0.6,1.8c0.4-0.5,0.8-1,1.1-1.4c0.1-0.1,0.2-0.1,0.4-0.2
			c0.2-0.1,0.5-0.1,0.7-0.3c0.2-0.2,0.3-0.5,0.5-0.7c0.7-0.8,1.5-1.6,2.5-1.9c0.2-0.1,0.4-0.3,0.6-0.5c0.9-0.9,1.7-1.8,2.6-2.6
			c0.9-0.8,1.1-2.2,2.2-2.8c0.3-0.8,1.1-1.3,1.6-1.9c0-0.5,0-0.9,0.2-1.4c0-0.1,0-0.3,0-0.4C15,5.5,14.7,5.5,14.6,5.5z"/>
		<path class="st1" d="M23,17.2c0.8,0.1,1.3-0.2,1.8-0.6c0.6-0.5,1.2-1,2-1.1c0.5-0.1,1.1-0.4,1.5-0.8c0.4-0.4,0.9-0.5,1.5-0.7
			c0.2-0.1,0.4-0.1,0.6-0.2c1.2-0.7,2.5-1,3.7-1.5c0.9-0.4,1.9-0.7,2.9-1.1c0.5-0.2,1-0.4,1.5-0.4c0.2,0,0.4-0.1,0.5-0.2
			c0.8-0.3,1.6-0.8,2.5-1.1c1-0.3,1.5-0.1,1.6,0.9c0,0.2,0,0.5,0,0.8c-0.5,0.3-0.6,1-1.3,1.3c-0.5,0.2-1.1,0.4-1.6,0.7
			c-0.9,0.4-1.8,0.9-2.8,1.2c-0.1,0-0.2,0.2-0.4,0.3c-0.5,0.2-1,0.6-1.5,0.7c-1.1,0.3-2.2,0.8-3.2,1.5c-0.4,0.3-1,0.4-1.4,0.7
			c-0.2,0.1-0.4,0.2-0.7,0.4c1.4,0.5,2.5,1.6,3.9,1.6c0.8,0.4,1.8,0,2.5,0.7c0.4-0.1,0.6,0.3,0.9,0.4c1.1,0.7,2.2,1.4,3.5,1.5
			c0.3,0,0.6,0.1,0.9,0.2c1,0.6,2.3,0.6,3.2,1.4c0.2,0.2,0.6,0.2,1,0.3c0.6,0.1,0.8,0.5,0.5,1c-0.2,0.2-0.3,0.4-0.4,0.7
			c0,0.4-0.5,0.7-0.8,0.5c-0.5-0.3-1.1-0.2-1.6-0.5c-0.4-0.2-0.9-0.3-1.3-0.4c-0.4-0.1-0.8-0.4-1.2-0.3c-0.1,0-0.2-0.1-0.3-0.2
			c-0.7-0.5-1.6-0.6-2.3-1.3c-0.7-0.6-1.6-0.8-2.4-0.9c-1.3-0.3-2.5-0.8-3.7-1.1c-1.2-0.3-2.3-0.8-3.6-0.9c-0.2,0-0.5-0.2-0.8-0.2
			c-0.4-0.1-0.8-0.2-1.3-0.2c-0.4,0-0.8,0-1.2,0c-0.8,0-1.6-0.3-2.4-0.5c-0.3-0.1-0.4-0.5-0.5-0.8C22.9,18.3,23,17.8,23,17.2z"/>
		<path class="st1" d="M81.5,21.9c-0.5,0.4-0.8,0.8-1.3,1.3c-0.3,0-0.8,0-1.3,0c-0.5,0-0.9-0.2-1.2-0.7c-0.5-0.8-1.2-2.6-1.3-3.6
			c0-0.6-0.2-1.2-0.2-1.8c0-2.2,0.7-4.2,2-6c0.4-0.5,0.8-1,1.2-1.5c0.4-0.5,1-0.8,1.5-1c0.8-0.3,1.6-0.6,2.4-1
			c0.2-0.1,0.5-0.1,0.7-0.1c1.2,0,2.4,0,3.6,0c1.5,0,2.9,0.5,4.3,1c0.6,0.2,1,0.7,1.7,0.7c0.2,0,0.4,0.1,0.5,0.2
			c0.8,0.9,1.9,1.6,2.4,2.9c0.4,1,1,1.8,1.3,2.8c0.2,0.9,0.3,1.9-0.1,2.8c-0.1,0.2-0.2,0.3-0.2,0.5c-0.2,0.6-0.3,1.2-0.8,1.6
			c-0.3,0.2-0.4,0.6-0.6,1c-0.7,1.2-1,1.5-2.1,2.3c-0.1,0.1-0.2,0.2-0.3,0.2c-0.2,0.2-0.4,0.5-0.8,0.5c-0.2,0-1.3-0.4-1.4-0.5
			c-0.6-0.5-0.6-1.1,0.1-1.5c0.8-0.3,1-1.1,1.5-1.7c0.4-0.5,0.5-1.2,0.8-1.7c0.4-0.5,0.4-1.2,0.6-1.7c0.2-0.6,0.1-1.3-0.2-2
			c-0.4-0.9-1-1.7-1.5-2.5c-0.1-0.1-0.3-0.2-0.5-0.3c-0.5-0.4-1-0.7-1.5-1.2c-0.6-0.6-1.4-0.8-2.2-1c-0.9-0.2-1.9-0.3-2.8-0.2
			c-1.1,0.1-2.1,0.3-3,1c-0.1,0.1-0.2,0.2-0.3,0.2c-1.1,0.2-1.7,1-2.3,1.9c-0.3,0.5-0.7,1-1,1.4c-0.6,0.9-0.8,1.9-0.7,3
			c0.1,1.5,0.8,2.7,1.9,3.7c0.1,0.1,0.3,0.1,0.4,0.2C81.1,21.4,81.3,21.6,81.5,21.9z"/>
		<path class="st1" d="M92,32.2c-0.3,0.1-0.5,0.3-0.8,0.5c-0.2,0.1-0.4,0.1-0.5,0.3c-0.6,0.8-1.5,1.2-2.4,1.7
			c-0.6,0.4-1.7,0.8-2.7,1c-1,0.3-2.1,0.6-3.1,0.5c-1-0.1-2-0.1-2.9-0.5c-0.9-0.4-1.8-1.2-2.1-2.3c-0.1-0.2-0.2-0.4-0.4-0.7
			c-0.1,0-0.2,0-0.2,0c-0.4,0.4-0.8,1-1.3,1.1c-0.5,0.1-0.8,0.6-1.3,0.7c-0.5,0.1-0.9,0.6-1.5,0.6c-0.1,0-0.2,0.1-0.3,0.2
			c-0.7,0.6-1.5,0.7-2.4,0.8c-0.9,0.1-1-0.1-1-0.9c0-0.4-0.1-0.8-0.2-1.2c0.1-0.1,0.2-0.3,0.4-0.3c0.7,0,1.2-0.5,1.8-0.7
			c0.7-0.2,1.2-0.4,1.7-1c0.2-0.2,0.4-0.3,0.7-0.4c1.1-0.4,1.9-1.1,3.1-1.5c0.4,0.4,0.9,0.9,1.1,1.4c0.2,0.7,0.5,1,1.1,1.3
			c0.5,0.3,0.9,0.5,1.5,0.5c0.4,0,0.8,0.2,1.3,0.2c0.4,0,0.7,0,1.1,0c0.3,0,0.6-0.3,1.1,0c0.2,0.1,0.6-0.2,0.9-0.3
			c0.3-0.1,0.7-0.2,1-0.3c0.4-0.1,0.9-0.2,1.3-0.4c0.3-0.1,0.7-0.1,0.8-0.3c0.5-0.9,1.5-0.7,2.1-1.4c0,0,0.2,0.1,0.2,0.2
			c0.5-0.4,1-0.8,1.5-1.2c0.6,0.5,0.9,1,1.2,1.6c0.5,1,1.8,1.7,2.9,1.9c0.4,0,0.6,0.2,0.8,0.6c0.1,0.4,0.5,0.7,0.5,1.2
			c0,0.5-0.2,0.8-0.7,0.7c-0.6-0.1-1.3-0.2-1.8-0.7c-0.9-0.7-1.7-1.6-2.2-2.7C92.2,32.4,92.1,32.3,92,32.2z"/>
		<path class="st1" d="M47.8,35.9c1-0.2,1.8-0.6,2.6-1.3c0.4-0.4,0.9-0.8,1.4-1.1c0.2-0.2,0.5-0.2,0.7,0c0.2,0.2,0.5,0.4,0.6,0.6
			c0.2,0.8,0.9,0.9,1.5,1.2c0.5,0.3,1.1,0.6,1.8,0.8c1,0.3,1.9,0.2,2.9,0.2c1.2-0.1,2.3-0.5,3.3-1.2c0.1-0.1,0.3-0.1,0.5-0.2
			c0.5-0.2,1-0.2,1.5-0.7c0.3-0.3,0.8-0.5,1.3-0.7c0.5,1.4,1.7,2.2,3.1,2.6c0.5,0.1,0.6,0.4,0.6,0.8c0,0.8,0.1,1.3,0.5,2
			c-0.4,0.1-0.4,0.1-0.6-0.6c-0.5,0.3-1.1,0.5-1.6,0c-0.9,0.2-1.7-0.1-2.5-0.3c-1.7-0.4-3.5-0.1-5.2-0.2c-0.7-0.1-1.4,0.2-2.1,0.3
			c-1.1,0.2-4.4,0.2-5.6,0c-0.7-0.1-1.5-0.1-2.3,0c-0.2,0-0.3,0-0.4-0.1c-0.6-0.2-1.1,0.3-1.7,0.2c-0.5-0.3,0.2-0.7-0.1-1.1
			C47.6,36.9,47.8,36.3,47.8,35.9z"/>
		<path class="st1" d="M86.4,17.2c0.3,0.2,0.6,0.4,0.8,0.4c0.6,0.2,0.5,0.9,0.9,1.2c-0.4,0.9-0.1,2.1-0.9,2.9
			c-0.2,0.2-0.3,0.3-0.6,0.4c-0.1,0-0.3,0-0.4-0.1c-0.2-0.2-0.2-0.1-0.4,0c-0.1,0-0.3,0-0.4,0c-0.4-0.3-0.8-0.5-1.1-0.9
			c-0.2-0.2-0.2-0.7-0.1-0.9c0.4-0.8,0.5-1.8,1.2-2.5C85.7,17.6,86,17.4,86.4,17.2z"/>
	</g>
</g>
<path class="st1" d="M122.4,6.8v9.4c0,2-0.5,3.5-1.6,4.5c-1.1,1-2.6,1.5-4.6,1.5c-2,0-3.5-0.5-4.6-1.5c-1.1-1-1.6-2.5-1.6-4.5V6.8
	h2.5v9.1c0,1.4,0.3,2.5,0.9,3.2c0.6,0.7,1.6,1,2.8,1c1.3,0,2.2-0.3,2.8-1c0.6-0.7,0.9-1.8,0.9-3.2V6.8H122.4z M132.4,6.8
	c1.6,0,2.9,0.4,3.9,1.3c1,0.8,1.5,2,1.5,3.5c0,1.5-0.5,2.6-1.5,3.5c-1,0.8-2.3,1.3-3.9,1.3H129V22h-2.5V6.8H132.4z M132,14.2
	c1.1,0,1.9-0.2,2.4-0.7c0.5-0.4,0.8-1.1,0.8-2c0-0.9-0.3-1.5-0.8-2c-0.5-0.5-1.3-0.7-2.4-0.7h-3v5.3H132z M146.2,6.6
	c1.4,0,2.5,0.3,3.5,0.8c1,0.5,1.8,1.3,2.5,2.3l-1.7,1.6c-0.6-0.9-1.2-1.5-2-1.9c-0.7-0.4-1.6-0.6-2.6-0.6c-1.1,0-1.9,0.2-2.4,0.6
	c-0.5,0.4-0.8,1-0.8,1.6c0,0.5,0.2,0.9,0.5,1.2c0.3,0.4,1,0.6,1.9,0.8l3.1,0.7c1.5,0.3,2.5,0.8,3.1,1.5c0.6,0.6,0.9,1.5,0.9,2.5
	c0,0.9-0.3,1.7-0.8,2.4c-0.5,0.7-1.2,1.2-2.1,1.6c-0.9,0.4-2,0.6-3.2,0.6c-1.6,0-3-0.3-4.1-0.9c-1.1-0.6-2-1.4-2.6-2.3l1.7-1.7
	c0.5,0.8,1.1,1.5,2,2c0.9,0.5,1.9,0.8,3.1,0.8c1.1,0,1.9-0.2,2.5-0.6c0.6-0.4,0.9-0.9,0.9-1.6c0-0.4-0.2-0.8-0.5-1.2
	c-0.3-0.4-0.8-0.6-1.7-0.8l-3.3-0.8c-1.4-0.3-2.4-0.8-3.1-1.4c-0.7-0.7-1-1.5-1-2.5c0-0.9,0.2-1.6,0.7-2.3c0.5-0.7,1.2-1.3,2-1.7
	C143.9,6.8,144.9,6.6,146.2,6.6z M166.4,6.8v2.1h-5.2V22h-2.5V8.9h-5.2V6.8H166.4z M175.6,6.8c1.6,0,2.9,0.4,3.9,1.2
	c1,0.8,1.4,1.9,1.4,3.3c0,1.1-0.3,2-0.9,2.7c-0.6,0.7-1.4,1.2-2.4,1.5l4.2,6.5H179l-3.9-6.1h-3.3V22h-2.4V6.8H175.6z M175.4,13.9
	c2,0,2.9-0.8,2.9-2.5s-1-2.5-2.9-2.5h-3.6v5H175.4z M184.8,22V6.8h11v2.1h-8.5v4.4h6.7v2.1h-6.7v4.5h8.9V22H184.8z M197.7,22
	l5.7-15.2h2.9l5.7,15.2h-2.6l-1.4-4h-6.4l-1.4,4H197.7z M204.2,11.1l-1.8,4.9h4.9l-1.7-4.9L204.9,9h-0.1L204.2,11.1z M230.3,6.8V22
	H228v-8.8l0.2-4.2h0l-4.6,13h-2l-4.6-13h0l0.2,4.2V22h-2.3V6.8h3.7l3.1,8.8l1.1,3.6h0l1.1-3.6l3-8.8H230.3z M118,28.1V36h-1.8v-3.6
	l0.1-2.4h0l-2,6.1h-1.7l-2-6.1h0l0.1,2.4V36h-1.8v-7.9h2.9l1.2,4l0.4,1.7h0l0.5-1.7l1.2-4H118z M126.7,28.1v4.7
	c0,2.2-1.2,3.3-3.5,3.3c-1.2,0-2-0.3-2.6-0.8c-0.6-0.6-0.9-1.4-0.9-2.5v-4.7h2.1v4.7c0,1.1,0.5,1.7,1.5,1.7c1,0,1.5-0.6,1.5-1.7
	v-4.7H126.7z M131.4,28c0.7,0,1.4,0.1,1.9,0.3c0.6,0.2,1.1,0.6,1.5,1l-1,1.3c-0.3-0.4-0.7-0.6-1.1-0.8c-0.4-0.2-0.8-0.3-1.3-0.3
	c-0.4,0-0.8,0.1-0.9,0.2c-0.2,0.1-0.3,0.3-0.3,0.5c0,0.2,0.1,0.3,0.2,0.4c0.2,0.1,0.4,0.2,0.8,0.3l1.3,0.3c0.8,0.2,1.4,0.5,1.7,0.8
	s0.6,0.8,0.6,1.4c0,0.6-0.1,1-0.4,1.4c-0.3,0.4-0.7,0.7-1.2,0.9c-0.5,0.2-1.1,0.3-1.7,0.3c-0.8,0-1.5-0.1-2.2-0.4
	c-0.7-0.3-1.2-0.6-1.6-1l1-1.4c0.3,0.3,0.7,0.6,1.2,0.9c0.5,0.2,1,0.3,1.6,0.3c0.8,0,1.2-0.2,1.2-0.7c0-0.2-0.1-0.3-0.2-0.4
	c-0.1-0.1-0.3-0.2-0.7-0.3l-1.5-0.3c-0.4-0.1-0.8-0.2-1.2-0.4c-0.3-0.2-0.6-0.4-0.8-0.7c-0.2-0.3-0.3-0.7-0.3-1.1
	c0-0.5,0.1-0.9,0.4-1.3c0.3-0.4,0.7-0.7,1.2-0.9C130.1,28.1,130.7,28,131.4,28z M138.1,28.1V36h-2.1v-7.9H138.1z M146.9,33.7
	c-0.2,0.8-0.7,1.4-1.3,1.8c-0.6,0.4-1.3,0.6-2.2,0.6c-0.8,0-1.5-0.2-2.1-0.5c-0.6-0.3-1-0.8-1.3-1.4s-0.5-1.3-0.5-2.2
	c0-0.9,0.2-1.6,0.5-2.2s0.8-1.1,1.3-1.4c0.6-0.3,1.3-0.5,2.1-0.5c0.8,0,1.5,0.2,2.2,0.5c0.6,0.4,1,0.9,1.2,1.7l-1.8,0.7
	c-0.1-0.5-0.3-0.8-0.6-1c-0.2-0.2-0.6-0.3-0.9-0.3c-0.6,0-1,0.2-1.4,0.6c-0.3,0.4-0.5,1-0.5,1.8c0,0.8,0.2,1.4,0.5,1.8
	c0.3,0.4,0.8,0.6,1.4,0.6c0.4,0,0.7-0.1,1-0.3c0.3-0.2,0.5-0.5,0.6-1L146.9,33.7z M150.4,36l2.8-7.9h2.5l2.8,7.9h-2.1l-0.5-1.8H153
	l-0.6,1.8H150.4z M154,30.9l-0.6,1.9h1.9l-0.6-1.9l-0.3-1.2h0L154,30.9z M162.4,28c0.7,0,1.4,0.1,1.9,0.3c0.6,0.2,1.1,0.6,1.5,1
	l-1,1.3c-0.3-0.4-0.7-0.6-1.1-0.8c-0.4-0.2-0.8-0.3-1.3-0.3c-0.4,0-0.8,0.1-0.9,0.2c-0.2,0.1-0.3,0.3-0.3,0.5c0,0.2,0.1,0.3,0.2,0.4
	c0.2,0.1,0.4,0.2,0.8,0.3l1.3,0.3c0.8,0.2,1.4,0.5,1.7,0.8c0.4,0.4,0.6,0.8,0.6,1.4c0,0.6-0.1,1-0.4,1.4c-0.3,0.4-0.7,0.7-1.2,0.9
	c-0.5,0.2-1.1,0.3-1.7,0.3c-0.8,0-1.5-0.1-2.2-0.4c-0.7-0.3-1.2-0.6-1.6-1l1-1.4c0.3,0.3,0.7,0.6,1.2,0.9c0.5,0.2,1,0.3,1.6,0.3
	c0.8,0,1.2-0.2,1.2-0.7c0-0.2-0.1-0.3-0.2-0.4c-0.1-0.1-0.3-0.2-0.7-0.3l-1.5-0.3c-0.4-0.1-0.8-0.2-1.2-0.4
	c-0.3-0.2-0.6-0.4-0.8-0.7c-0.2-0.3-0.3-0.7-0.3-1.1c0-0.5,0.1-0.9,0.4-1.3c0.3-0.4,0.7-0.7,1.2-0.9C161.1,28.1,161.7,28,162.4,28z
	 M170.1,28c0.7,0,1.4,0.1,1.9,0.3c0.6,0.2,1.1,0.6,1.5,1l-1,1.3c-0.3-0.4-0.7-0.6-1.1-0.8c-0.4-0.2-0.8-0.3-1.3-0.3
	c-0.4,0-0.8,0.1-0.9,0.2c-0.2,0.1-0.3,0.3-0.3,0.5c0,0.2,0.1,0.3,0.2,0.4c0.2,0.1,0.4,0.2,0.8,0.3l1.3,0.3c0.8,0.2,1.4,0.5,1.7,0.8
	s0.6,0.8,0.6,1.4c0,0.6-0.1,1-0.4,1.4c-0.3,0.4-0.7,0.7-1.2,0.9c-0.5,0.2-1.1,0.3-1.7,0.3c-0.8,0-1.5-0.1-2.2-0.4
	c-0.7-0.3-1.2-0.6-1.6-1l1-1.4c0.3,0.3,0.7,0.6,1.2,0.9c0.5,0.2,1,0.3,1.6,0.3c0.8,0,1.2-0.2,1.2-0.7c0-0.2-0.1-0.3-0.2-0.4
	c-0.1-0.1-0.3-0.2-0.7-0.3l-1.5-0.3c-0.4-0.1-0.8-0.2-1.2-0.4c-0.3-0.2-0.6-0.4-0.8-0.7c-0.2-0.3-0.3-0.7-0.3-1.1
	c0-0.5,0.1-0.9,0.4-1.3c0.3-0.4,0.7-0.7,1.2-0.9C168.8,28.1,169.4,28,170.1,28z M178.3,28c0.8,0,1.5,0.2,2.1,0.5
	c0.6,0.3,1,0.8,1.3,1.4c0.3,0.6,0.5,1.3,0.5,2.2c0,0.9-0.2,1.6-0.5,2.2c-0.3,0.6-0.8,1.1-1.3,1.4c-0.6,0.3-1.3,0.5-2.1,0.5
	c-0.8,0-1.5-0.2-2.1-0.5c-0.6-0.3-1-0.8-1.3-1.4c-0.3-0.6-0.5-1.3-0.5-2.2c0-0.9,0.2-1.6,0.5-2.2c0.3-0.6,0.8-1.1,1.3-1.4
	C176.8,28.1,177.5,28,178.3,28z M178.3,29.6c-0.6,0-1,0.2-1.3,0.6c-0.3,0.4-0.5,1-0.5,1.8c0,0.8,0.2,1.4,0.5,1.8
	c0.3,0.4,0.7,0.6,1.3,0.6c0.6,0,1-0.2,1.3-0.6c0.3-0.4,0.5-1,0.5-1.8c0-0.8-0.2-1.4-0.5-1.8C179.3,29.8,178.9,29.6,178.3,29.6z
	 M190.6,33.7c-0.2,0.8-0.7,1.4-1.3,1.8c-0.6,0.4-1.3,0.6-2.2,0.6c-0.8,0-1.5-0.2-2.1-0.5c-0.6-0.3-1-0.8-1.3-1.4
	c-0.3-0.6-0.5-1.3-0.5-2.2c0-0.9,0.2-1.6,0.5-2.2c0.3-0.6,0.8-1.1,1.3-1.4c0.6-0.3,1.3-0.5,2.1-0.5c0.8,0,1.5,0.2,2.2,0.5
	c0.6,0.4,1,0.9,1.2,1.7l-1.8,0.7c-0.1-0.5-0.3-0.8-0.6-1c-0.2-0.2-0.6-0.3-0.9-0.3c-0.6,0-1,0.2-1.4,0.6c-0.3,0.4-0.5,1-0.5,1.8
	c0,0.8,0.2,1.4,0.5,1.8c0.3,0.4,0.8,0.6,1.4,0.6c0.4,0,0.7-0.1,1-0.3c0.3-0.2,0.5-0.5,0.6-1L190.6,33.7z M193.8,28.1V36h-2.1v-7.9
	H193.8z M194.8,36l2.8-7.9h2.5l2.8,7.9h-2.1l-0.5-1.8h-2.7l-0.6,1.8H194.8z M198.4,30.9l-0.6,1.9h1.9l-0.6-1.9l-0.3-1.2h0
	L198.4,30.9z M209.4,28.1v1.6h-2.6V36h-2.1v-6.3h-2.6v-1.6H209.4z M212.6,28.1V36h-2.1v-7.9H212.6z M217.9,28c0.8,0,1.5,0.2,2.1,0.5
	c0.6,0.3,1,0.8,1.3,1.4s0.5,1.3,0.5,2.2c0,0.9-0.2,1.6-0.5,2.2s-0.8,1.1-1.3,1.4c-0.6,0.3-1.3,0.5-2.1,0.5c-0.8,0-1.5-0.2-2.1-0.5
	c-0.6-0.3-1-0.8-1.3-1.4c-0.3-0.6-0.5-1.3-0.5-2.2c0-0.9,0.2-1.6,0.5-2.2c0.3-0.6,0.8-1.1,1.3-1.4C216.4,28.1,217.1,28,217.9,28z
	 M217.9,29.6c-0.6,0-1,0.2-1.3,0.6c-0.3,0.4-0.5,1-0.5,1.8c0,0.8,0.2,1.4,0.5,1.8c0.3,0.4,0.7,0.6,1.3,0.6c0.6,0,1-0.2,1.3-0.6
	c0.3-0.4,0.5-1,0.5-1.8c0-0.8-0.2-1.4-0.5-1.8C218.9,29.8,218.5,29.6,217.9,29.6z M230.4,28.1V36h-2.3l-2.5-4.3l-0.6-1.2h0l0,1.5v4
	h-1.8v-7.9h2.3l2.5,4.3l0.6,1.2h0l0-1.5v-4H230.4z"/>
</svg>
