<svg width="239" height="40" viewBox="0 0 239 40" fill="none" xmlns="http://www.w3.org/2000/svg">
<g clip-path="url(#clip0)">
<path d="M47.7949 33.134C47.7949 31.4686 47.8441 29.828 47.7703 28.1626C47.7211 26.6215 48.0655 25.0556 47.4997 23.5642C47.3521 23.1665 47.9179 23.0173 47.5981 22.5948C47.4259 22.371 47.5489 21.8739 47.5243 21.5259C47.3767 18.5431 47.1799 15.5603 47.2783 12.5527C46.8109 10.9122 46.9093 9.19705 47.1061 7.58137C47.2783 6.11483 47.1799 4.64829 47.3029 3.10718C47.5735 3.08233 47.8933 3.10718 48.1885 3.05747C48.459 3.00776 48.6804 2.83376 49.0002 3.03261C49.1232 3.10718 49.4922 2.88347 49.689 2.70948C50.3777 2.16263 51.3371 2.36149 52.0504 1.8395C52.567 2.4112 53.0343 1.74007 53.5509 1.78978C54.1167 1.86435 54.707 1.8395 55.2728 1.78978C56.2321 1.74007 57.1915 1.44179 58.1262 1.59093C60.2171 1.93892 62.3325 1.61579 64.4234 1.8395C65.5795 1.96378 66.7357 2.01349 67.8918 2.06321C68.064 2.06321 68.2362 2.2372 68.5067 2.36149C68.3591 2.51063 68.2854 2.65977 68.187 2.68462C67.7688 2.8089 67.572 3.00776 67.7688 3.45518C67.8672 3.65403 67.9164 3.9026 67.9656 4.1263C67.9902 4.20087 67.9656 4.3003 67.9656 4.37487C67.7688 6.58711 68.3345 8.77449 68.2116 10.9867C68.187 11.4839 68.5559 11.8567 68.4821 12.3787C68.4329 12.7764 68.4575 13.199 68.6543 13.6712C68.8511 14.1435 68.7527 14.7649 68.6051 15.5106C68.9987 16.1818 69.9334 16.4303 70.6714 16.9523C71.1634 17.3003 71.7291 17.5489 71.9259 18.3194C71.4585 18.7171 71.1142 19.3137 70.3762 19.4628C69.7121 19.612 69.1955 20.0345 68.7035 20.4571C68.3591 20.0097 68.4575 19.4877 68.4821 19.09C68.9495 18.4934 69.8104 18.6426 69.9826 17.8223C69.4661 17.6731 68.9495 17.524 68.4575 17.3749C68.4575 17.0766 68.4821 16.828 68.4575 16.5795C68.4329 16.4055 68.3345 16.1569 68.187 16.0823C67.449 15.6846 66.7111 15.2869 65.9239 15.0135C65.5795 14.8892 65.2352 14.8892 64.9892 14.5909C64.9646 14.5412 64.7678 14.6655 64.6202 14.6904C64.4726 14.1684 64.1528 13.7955 63.5625 13.5718C62.3325 13.0995 61.1518 12.4533 59.9219 11.9313C59.4053 11.7076 58.8888 11.1359 58.2246 11.7324C58.1508 11.7821 57.954 11.7821 57.8556 11.7324C57.0685 11.3099 56.1583 11.3596 55.3712 10.8624C54.83 10.5393 54.1905 10.3902 53.6001 10.1665C53.2311 10.7879 53.0589 11.3347 53.2557 11.9313C54.0675 12.2047 54.8546 12.4533 55.6664 12.7267C55.9124 12.8013 56.1583 12.9504 56.4289 12.9753C57.4867 13.0995 59.4299 13.7955 60.4877 14.4666C60.7828 14.6406 61.078 14.8395 61.3978 14.9638C62.1112 15.2372 62.8491 15.3863 63.5625 15.6846C64.7678 16.2315 66.1699 16.306 67.2768 17.1263C67.3506 17.2009 67.4982 17.2009 67.6212 17.2009C68.064 17.2506 68.2362 17.4992 68.2116 17.9466C68.2116 18.1454 68.187 18.3691 68.2116 18.568C68.2853 19.1148 67.9902 19.2888 67.572 19.5374C67.2276 19.7611 67.203 19.3634 66.9816 19.438C65.8255 19.8357 64.6448 20.134 63.5133 20.6062C62.4309 21.0536 61.2748 21.2028 60.1679 21.4265C59.7743 21.5011 59.4053 21.4762 59.0855 21.7993C58.8642 22.0231 58.4706 22.1225 58.1508 22.1722C57.2899 22.2716 56.3305 22.3959 56.1337 22.6196C55.4942 23.3156 54.6332 22.6445 53.9691 23.0422C53.8215 23.1416 53.6001 23.1167 53.4033 23.1913C52.8622 23.415 52.2718 23.3653 51.7552 23.6884C51.1649 24.0364 50.5007 24.2353 49.8611 24.4341C49.3446 24.5833 49.197 24.807 49.2954 25.329C49.3692 25.7018 49.5168 26.0498 49.6644 26.4972C49.9595 26.4227 50.2547 26.3232 50.5745 26.2735C51.3125 26.199 51.8782 25.6521 52.567 25.4533C53.0097 25.329 53.5017 25.3041 53.8953 25.1053C54.3627 24.8816 54.7808 24.6081 55.322 24.6827C55.6664 24.1607 56.2075 24.5087 56.6749 24.3596C57.9294 23.9867 59.1839 23.6139 60.4877 23.4399C60.9796 23.3653 61.447 23.1665 61.9144 23.0173C62.7507 22.7439 63.5625 22.3462 64.4234 22.2468C66.0469 22.0728 67.4244 21.3519 68.7527 20.4819C68.7527 21.3022 68.9003 22.1722 68.7281 22.9676C68.3345 24.7573 68.5805 26.547 68.5313 28.3366C68.5067 28.958 68.7035 29.5795 68.7527 30.2257C68.8019 30.8471 68.7281 31.4686 68.7773 32.09C68.8019 32.438 68.9741 32.7611 68.9987 33.1091C69.0233 33.5068 68.9003 33.4322 68.3591 33.4571C67.4982 33.4819 66.957 33.0097 66.4405 32.438C66.2191 32.1894 66.0961 31.7171 65.8255 31.6177C65.4811 31.4686 65.3827 31.1454 65.063 30.8969C64.5956 31.4934 63.7592 31.4934 63.2427 32.1397C63.0213 32.4131 62.5047 32.5374 62.0374 32.4628C61.6192 32.3883 61.2256 32.438 61.1272 33.0097C61.1272 33.0842 61.0534 33.1837 61.0042 33.2085C60.0449 33.308 59.2577 34.1034 58.2492 33.9791C57.9786 33.9542 57.6834 33.9542 57.3883 33.9791C56.0599 34.0785 54.9038 33.5317 53.7477 32.96C53.5017 32.8357 53.3049 32.612 53.1081 32.438C52.6408 31.9657 52.1734 31.4934 51.6814 30.9963C50.9681 31.394 50.2793 31.8663 49.5414 32.2143C49.0494 32.438 48.705 32.786 48.3114 33.134C48.1393 33.1091 47.9425 33.0842 47.7949 33.134Z" fill="#FFFFFF"/>
<path d="M47.7938 35.8681C46.9575 35.8184 46.1703 36.1416 45.3094 36.1664C44.3992 36.1913 43.7351 35.7687 43.0217 35.3959C42.3576 35.0479 41.7918 34.5756 41.4474 33.8547C41.3736 33.6808 41.1768 33.5565 41.103 33.4819C39.8239 33.805 38.8646 34.675 37.7085 35.197C36.5523 35.719 35.4946 36.0918 34.2893 35.6444C33.4529 35.8184 32.715 35.4207 32.0508 35.0976C31.4113 34.7744 30.6487 34.4264 30.2798 33.6062C30.1076 33.1836 29.7632 32.8356 29.4926 32.4379C29.1728 32.5871 28.9022 32.8605 28.5825 32.8853C27.5739 32.9848 26.9098 33.7056 26.1964 34.2276C24.9911 35.1224 24.2285 35.545 22.974 35.6196C22.9002 35.6196 22.8018 35.6196 22.728 35.6196C21.7441 35.7439 21.7441 35.7439 20.5634 35.371C20.1206 35.2467 19.6286 35.2467 19.1859 35.0976C18.7923 34.9733 18.4479 34.7496 18.0789 34.5756C18.2019 35.4207 18.3003 36.1664 18.3987 37.0115C18.0543 37.0612 17.71 37.7075 17.1688 37.1607C16.603 37.633 16.0865 37.0861 15.5453 37.1358C15.0287 37.1855 14.5368 37.2352 14.0202 37.1358C13.4544 37.0364 12.8887 37.111 12.2983 37.111C11.708 37.111 11.1422 37.111 10.5764 37.111C10.0107 37.111 9.42031 37.111 8.85455 37.111C8.28878 37.111 7.69842 37.111 7.13266 37.111C6.5669 37.111 5.97654 37.111 5.41077 37.111C4.84501 37.111 4.25465 37.111 3.68888 37.111C3.12312 37.111 2.53276 37.1358 1.967 37.111C1.62262 37.0861 1.54882 37.2601 1.40123 37.5335C1.30284 37.7075 0.860069 37.7075 0.491093 37.8069C0.491093 37.4838 0.466495 37.111 0.491093 36.763C0.589487 35.0976 0.0729206 33.457 0.245109 31.7668C-0.0992682 31.22 -0.148465 30.5488 0.0237238 30.0268C0.368101 28.9829 0.318905 27.914 0.195913 26.8949C0.097519 26.1492 -0.123867 25.3786 0.0237238 24.633C0.491093 22.4207 0.245109 20.2085 0.294306 17.9962C0.343503 15.7094 0.294306 13.4475 0.294306 11.1607C0.294306 8.92358 0.294306 6.68649 0.294306 4.4494C0.294306 3.65398 -0.123867 2.88343 0.0237238 2.06316C0.097519 1.8146 0.0237238 1.49146 0.0729206 1.21804C0.122117 0.994328 0.294306 0.820332 0.466495 0.546909C0.860069 0.671192 1.22905 0.894902 1.79481 0.621479C2.23758 0.372913 2.92633 0.596623 3.4921 0.571766C3.98407 0.546909 4.54983 0.273487 4.91881 0.47234C5.38617 0.696049 5.92734 0.298343 6.27172 0.770619C6.73909 0.47234 7.32945 0.770619 7.72302 0.546909C8.38718 0.17406 9.12513 0.47234 9.76469 0.124347C10.1091 -0.0745055 10.6502 0.074634 11.093 0.0994906C11.7326 0.124347 12.4459 6.42426e-05 13.0117 0.198917C13.6758 0.422626 14.2908 0.273487 14.9304 0.3232C15.5699 0.372913 16.2341 0.298343 16.8982 0.348057C17.095 0.372913 17.3902 0.522053 17.4886 0.696049C17.6608 1.01918 17.4148 1.09375 17.095 1.11861C17.095 3.33085 17.095 5.54309 17.095 7.85475C17.3164 7.78018 17.4886 7.70561 17.6362 7.63104C17.833 7.80504 18.0789 8.00389 18.3495 8.2276C17.956 8.77444 17.5624 9.27157 17.1196 9.86813C17.0704 9.27157 17.0458 8.77444 16.972 8.12817C16.2833 8.67502 15.6683 9.12244 15.1271 9.61957C14.3646 10.3156 13.725 11.1358 12.9379 11.7821C12.1507 12.4284 11.4128 13.1741 10.8224 13.9695C10.0845 14.9886 9.05134 15.6846 8.16579 16.5297C7.20646 17.4743 6.00113 18.1702 5.09099 19.1894C4.54983 19.0402 4.79581 19.6616 4.50063 19.8108C4.23005 19.9599 4.03326 20.2582 3.73808 20.5565C4.13166 21.2773 2.87714 22.1473 3.95947 22.9676C4.15625 22.7936 4.47603 22.6693 4.54983 22.4456C4.91881 21.501 5.85354 21.2525 6.5423 20.7056C7.20646 20.7802 7.35405 19.8108 8.0428 19.9102C8.41178 19.4379 8.85455 19.0154 9.14973 18.5182C9.34652 18.1702 9.6663 17.9217 9.88768 17.6234C10.1091 17.3251 10.5026 17.1511 10.7978 16.9025C11.1422 16.6043 11.3882 16.1569 11.7818 15.958C12.8641 15.4112 13.4053 14.3423 14.094 13.4475C14.5122 12.8758 14.9058 12.2792 15.3977 11.7572C15.8159 11.3347 16.1603 10.8375 16.5538 10.3901C16.6522 10.2907 16.7998 10.2658 17.1196 10.1167C16.9474 10.9618 17.2918 11.6578 16.849 12.3786C16.6522 12.7018 16.8982 13.0746 17.3902 13.2735C17.5378 12.9752 17.71 12.6521 17.9314 12.2544C18.2019 12.2792 18.6447 12.0307 18.8415 12.4284C19.0629 12.8758 19.5795 13.1492 19.5549 13.7458C19.5303 14.1932 19.5549 14.6406 19.5549 15.0632C19.3335 15.2123 19.0629 15.2869 18.9645 15.4609C18.6939 15.8586 18.2511 15.958 17.8576 16.0574C17.6854 16.1071 17.4886 16.0326 17.341 16.1071C17.1688 16.1817 17.0212 16.3308 16.8736 16.4551C16.8736 15.4857 16.8736 14.4915 16.8736 13.4723C16.5538 13.6215 16.3079 13.7209 16.1111 13.87C15.3731 14.4915 14.6598 15.1377 13.9464 15.784C13.479 16.2314 13.0609 16.6788 12.7165 17.2505C12.4213 17.698 12.0031 18.1205 11.462 18.3194C11.1176 19.1396 10.4288 19.6368 9.78929 20.1588C9.12513 20.7056 8.38718 21.1282 7.72302 21.675C6.98507 22.2716 6.24712 22.8681 5.58296 23.5641C4.91881 24.2352 4.91881 25.2295 5.45997 25.9255C5.63216 26.1492 5.92734 26.2735 6.09953 26.1492C6.4931 25.8758 6.93587 25.7515 7.30485 25.5029C7.94441 25.0804 8.48557 24.5584 9.02674 24.0364C9.88768 23.2161 10.847 22.545 11.8802 21.9733C12.1999 21.7744 12.5935 21.5756 12.6673 21.3022C12.7903 20.8547 13.1593 20.6559 13.4053 20.3576C13.7004 20.0096 14.1186 19.7611 14.34 19.3882C14.9304 18.3939 15.7913 17.6731 16.6522 16.9523C16.6522 17.3997 16.6276 17.872 16.6522 18.3194C16.6768 18.6674 16.3817 19.1645 17.0458 19.2639C17.095 19.2639 17.1196 19.6368 17.1196 19.8356C17.1196 21.7744 17.1934 23.7381 17.095 25.6769C17.0458 26.9943 17.2918 28.262 17.4148 29.5546C17.464 30.002 17.587 30.4743 17.6362 30.9465C17.6854 31.3939 17.8084 31.8414 17.9068 32.3634C17.218 32.4131 16.8982 31.8911 16.4555 31.6425C15.8405 31.3194 15.2993 30.9465 15.1271 30.2008C15.1025 30.0517 15.0287 29.9026 14.955 29.7783C14.5122 29.0823 14.1924 29.0077 13.3561 29.4054C13.0117 29.5794 12.6673 29.7286 12.3475 29.9274C11.9785 30.176 11.6588 30.4245 11.1914 30.3997C11.0438 30.3997 10.847 30.4494 10.7732 30.5488C10.2813 31.22 9.51871 31.2945 8.82995 31.4934C7.74762 31.7917 6.68989 32.1645 5.53376 32.1645C4.35304 32.1645 3.4675 31.6177 2.58196 30.9217C2.38517 30.7725 2.23758 30.5737 2.04079 30.3997C1.81941 30.7228 1.9178 30.9465 2.13919 31.2697C2.60656 31.9656 2.97553 32.7113 3.61509 33.2582C4.15625 33.7056 4.74662 34.0287 5.45997 34.1779C5.92734 34.2525 6.39471 34.5507 6.83748 34.3767C7.77222 34.0287 8.80535 34.1282 9.71549 33.631C10.4288 33.2333 11.2406 32.9848 12.0277 32.6616C12.8149 32.3385 13.4544 31.7419 14.1678 31.3194C14.2908 31.2448 14.3154 31.0211 14.3892 30.8222C15.0287 31.6922 15.5207 32.5373 16.1849 33.2333C16.6768 33.7553 17.3656 34.0785 18.1035 34.5756C18.1773 33.8299 18.2511 33.2831 17.9314 32.5871C18.7677 32.9351 19.5303 33.1091 20.3174 33.2333C21.2275 33.3825 21.8671 33.3576 22.6297 33.2582C24.0072 33.0842 25.1387 32.4628 26.0734 31.4685C26.7622 31.3691 27.3525 30.9714 27.9429 30.6482C28.1151 30.5488 28.2873 30.4743 28.4595 30.3997C29.099 30.6482 29.6156 31.0211 30.0584 31.5928C30.8209 32.5373 31.8049 33.1339 33.084 33.1836C33.4775 33.1836 33.8957 33.3825 34.3385 33.4073C35.7898 33.5565 36.9951 32.9599 38.1512 32.1894C38.6924 31.8414 39.2582 31.5182 39.8485 31.2199C40.2175 31.0211 40.9555 31.3442 41.2752 31.7668C42.21 33.0842 43.2185 33.631 44.6698 33.631C45.088 33.631 45.4816 33.6062 45.8997 33.631C46.6377 33.7056 47.2526 33.3825 47.9168 33.1339C47.7938 34.0287 47.7938 34.9484 47.7938 35.8681ZM14.5614 5.54309C13.725 6.26393 12.9871 6.93505 12.1999 7.55647C11.5604 8.02874 10.8962 8.42645 10.5518 9.22186C10.4534 9.44557 10.1583 9.59471 9.93688 9.79356C9.76469 9.9427 9.5679 10.067 9.42031 10.2161C9.24812 10.415 9.10053 10.6635 8.92834 10.8375C8.73156 11.0364 8.46097 11.111 8.33798 11.4341C8.23959 11.6827 7.84601 11.7821 7.60003 11.9809C7.30485 12.2047 6.78828 12.4284 6.76368 12.7018C6.68989 13.2486 5.92734 13.0498 5.97654 13.5966C5.18939 14.2926 4.77121 15.3614 3.76268 15.9083C3.24611 16.1817 2.85254 16.7286 2.45897 17.2008C2.26218 17.4245 2.04079 17.7725 2.08999 18.0211C2.18838 18.5928 2.43437 19.1396 2.68035 19.8108C3.09852 19.2639 3.4429 18.8165 3.78728 18.3939C3.86107 18.2945 4.03326 18.2448 4.18085 18.1951C4.42684 18.0957 4.72202 18.0708 4.91881 17.9217C5.14019 17.7228 5.26318 17.3997 5.45997 17.176C6.17332 16.3806 6.93587 15.61 7.96901 15.2372C8.21499 15.1377 8.41178 14.914 8.60856 14.7152C9.49411 13.8452 10.3305 12.9255 11.216 12.0804C12.1015 11.2601 12.3475 9.91785 13.4544 9.29643C13.7988 8.47616 14.5614 8.02875 15.1025 7.35762C15.0533 6.88534 15.1025 6.41307 15.3239 5.96565C15.3731 5.86622 15.2993 5.66737 15.2747 5.51823C14.955 5.54309 14.709 5.54309 14.5614 5.54309Z" fill="#FFFFFF"/>
<path d="M22.9504 17.176C23.7129 17.3003 24.2049 16.9523 24.7215 16.5546C25.3118 16.0823 25.8776 15.5603 26.7139 15.436C27.2551 15.3615 27.8209 15.0383 28.239 14.6655C28.6818 14.2926 29.1738 14.1683 29.6903 13.9695C29.9117 13.8949 30.1331 13.8203 30.3299 13.7209C31.486 13.0249 32.8143 12.7515 34.0197 12.2544C34.9544 11.8567 35.9383 11.5335 36.8977 11.1855C37.4142 10.9867 37.8816 10.7381 38.4474 10.7381C38.6196 10.7381 38.8163 10.6387 38.9885 10.5641C39.8249 10.2161 40.6366 9.79358 41.4976 9.47044C42.4815 9.12245 42.9981 9.32131 43.1211 10.3404C43.1457 10.589 43.1211 10.8376 43.1211 11.1358C42.5799 11.4093 42.4815 12.1798 41.8419 12.4035C41.3008 12.5775 40.7842 12.8509 40.2676 13.0747C39.3329 13.4724 38.4474 14.0192 37.4388 14.2429C37.2912 14.2678 37.1928 14.4418 37.0699 14.5163C36.5533 14.7649 36.0859 15.088 35.5202 15.262C34.3886 15.61 33.3309 16.1072 32.347 16.8031C31.9042 17.1014 31.3876 17.2506 30.9203 17.4743C30.7235 17.5737 30.5267 17.698 30.2069 17.8968C31.6336 18.394 32.6667 19.4877 34.1426 19.4628C34.9298 19.8854 35.9629 19.4877 36.6517 20.2085C37.0945 20.0842 37.2666 20.4819 37.5618 20.6559C38.6688 21.3519 39.7757 22.023 41.104 22.197C41.3992 22.2467 41.7189 22.2964 41.9895 22.4456C43.0227 23.0173 44.3018 23.0173 45.2119 23.8873C45.4333 24.0861 45.8515 24.111 46.1959 24.1607C46.7862 24.285 47.0076 24.7075 46.6632 25.1798C46.491 25.4035 46.3434 25.5775 46.2942 25.9007C46.2451 26.3232 45.8269 26.5718 45.5071 26.3729C44.9905 26.0498 44.3756 26.1244 43.859 25.9007C43.4408 25.7267 42.9981 25.6024 42.5799 25.4532C42.1863 25.3041 41.8173 25.0555 41.35 25.155C41.2762 25.1798 41.1778 25.0058 41.0794 24.9312C40.3414 24.459 39.4313 24.285 38.7671 23.6636C38.0784 23.0173 37.1682 22.893 36.3319 22.719C35.0528 22.4456 33.8475 21.9485 32.593 21.6005C31.4122 21.2773 30.2807 20.7802 29.0262 20.6808C28.7802 20.6559 28.5342 20.5068 28.2636 20.4571C27.8455 20.3576 27.4273 20.2582 27.0091 20.2085C26.6155 20.1588 26.1974 20.1836 25.7792 20.2085C24.9429 20.2333 24.2049 19.8605 23.4178 19.6865C23.098 19.6119 22.975 19.1894 22.9504 18.8414C22.9258 18.3442 22.9504 17.8471 22.9504 17.176Z" fill="#FFFFFF"/>
<path d="M81.5435 21.8738C81.0762 22.3212 80.7072 22.6941 80.2152 23.1912C79.92 23.1912 79.4281 23.2409 78.9607 23.1663C78.4933 23.1166 78.0506 22.9675 77.8046 22.4952C77.3372 21.6501 76.6238 19.8853 76.5255 18.9158C76.4763 18.3441 76.3287 17.7476 76.3041 17.151C76.2549 14.9139 76.9928 12.9503 78.2719 11.1357C78.6409 10.6137 79.0591 10.1415 79.4773 9.64433C79.92 9.1472 80.4612 8.84892 81.027 8.62521C81.8387 8.30208 82.6505 8.0038 83.4622 7.65581C83.659 7.55638 83.9296 7.55638 84.151 7.55638C85.3317 7.55638 86.537 7.58124 87.7177 7.55638C89.2428 7.50667 90.5957 8.10322 91.9732 8.60036C92.539 8.79921 92.9818 9.3212 93.6459 9.3212C93.8181 9.3212 94.0395 9.44548 94.1379 9.56976C94.9251 10.5143 96.032 11.1606 96.524 12.4283C96.8929 13.3977 97.5325 14.2179 97.8031 15.2371C98.0491 16.1816 98.0983 17.1262 97.7047 18.0459C97.6309 18.2199 97.5079 18.3939 97.4587 18.5679C97.2865 19.1893 97.1389 19.761 96.6223 20.2084C96.3518 20.457 96.1796 20.8298 95.9828 21.1778C95.294 22.3958 94.9989 22.7189 93.8673 23.4895C93.7689 23.564 93.6951 23.6635 93.5967 23.738C93.3754 23.9369 93.2032 24.26 92.8096 24.2103C92.6128 24.1854 91.5551 23.8126 91.4321 23.6883C90.8663 23.1663 90.8663 22.5449 91.5305 22.2218C92.293 21.8738 92.539 21.1032 93.031 20.5564C93.4492 20.0841 93.5229 19.3136 93.8673 18.8164C94.2609 18.2696 94.2609 17.6482 94.4577 17.0765C94.6791 16.4799 94.5807 15.7342 94.2363 15.0879C93.7935 14.2179 93.277 13.4225 92.7358 12.6023C92.6374 12.4531 92.416 12.3786 92.2684 12.2543C91.7765 11.8814 91.2353 11.5334 90.7925 11.086C90.1776 10.4895 89.3904 10.2409 88.6279 10.042C87.7177 9.79347 86.7338 9.69405 85.799 9.79347C84.7413 9.8929 83.659 10.0669 82.7734 10.7877C82.6751 10.8623 82.6013 10.9617 82.4783 10.9866C81.3467 11.1854 80.7564 11.9809 80.1906 12.8757C79.8708 13.3728 79.5265 13.8451 79.2067 14.3174C78.6163 15.2619 78.4195 16.2065 78.4933 17.2753C78.6163 18.7667 79.2559 19.9847 80.3628 20.9292C80.4612 21.0287 80.658 21.0287 80.7564 21.1281C81.0516 21.3518 81.2729 21.6004 81.5435 21.8738Z" fill="#FFFFFF"/>
<path d="M91.9982 32.1645C91.7276 32.3137 91.457 32.4877 91.2111 32.6368C91.0389 32.7362 90.8175 32.7611 90.7191 32.9102C90.1041 33.7554 89.1694 34.1034 88.3331 34.5756C87.6935 34.9485 86.6112 35.3462 85.6764 35.6196C84.6433 35.9179 83.6102 36.1913 82.5524 36.0919C81.5931 35.9925 80.56 35.9428 79.699 35.5699C78.7643 35.1473 77.9279 34.4016 77.559 33.3079C77.4852 33.0594 77.313 32.8605 77.1654 32.6368C77.067 32.6617 76.944 32.6368 76.9194 32.6865C76.5012 33.0842 76.1569 33.7057 75.6649 33.8299C75.1237 33.9791 74.8285 34.4265 74.3366 34.5259C73.82 34.6502 73.451 35.1473 72.8607 35.1473C72.7623 35.1473 72.6639 35.2468 72.5655 35.3213C71.9013 35.9428 71.0404 36.0422 70.1794 36.1168C69.3185 36.1913 69.2201 36.0422 69.1709 35.1971C69.1463 34.8242 69.0479 34.4265 68.9741 33.9791C69.0725 33.9045 69.2201 33.6559 69.3677 33.6808C70.081 33.7305 70.573 33.2085 71.188 33.0097C71.8521 32.8108 72.4179 32.5622 72.8853 32.0403C73.0575 31.8414 73.328 31.7668 73.5986 31.6674C74.6564 31.2946 75.5419 30.5986 76.6734 30.1263C77.0424 30.5737 77.6082 31.0211 77.7557 31.568C77.9279 32.264 78.2969 32.5871 78.8135 32.9102C79.2808 33.1837 79.7236 33.4571 80.3386 33.4322C80.7568 33.4074 81.1749 33.6062 81.5931 33.6559C81.9621 33.7057 82.331 33.6311 82.7 33.6808C83.0444 33.7305 83.3396 33.3825 83.7578 33.6311C83.9299 33.7305 84.3727 33.4074 84.6925 33.3079C85.0123 33.2085 85.3566 33.1339 85.701 33.0345C86.1438 32.9102 86.5866 32.8108 87.0293 32.6617C87.3245 32.5622 87.7427 32.5125 87.8411 32.3137C88.3085 31.4437 89.3662 31.568 89.9811 30.9466C89.9811 30.9466 90.1533 31.0957 90.2025 31.1454C90.6945 30.7229 91.1619 30.3252 91.6538 29.9026C92.2196 30.3749 92.564 30.9217 92.8592 31.5431C93.3265 32.5125 94.6302 33.2582 95.7618 33.4074C96.1799 33.4571 96.3767 33.6062 96.5243 34.0039C96.6719 34.4016 97.0163 34.6999 97.0163 35.1722C97.0163 35.6942 96.7949 35.9676 96.3029 35.893C95.6634 35.8185 95.0238 35.6445 94.4826 35.2219C93.5725 34.5011 92.81 33.6311 92.318 32.5622C92.2196 32.3634 92.072 32.264 91.9982 32.1645Z" fill="#FFFFFF"/>
<path d="M47.7947 35.9178C48.7787 35.719 49.615 35.2964 50.353 34.6253C50.7957 34.2276 51.2631 33.8547 51.7305 33.4819C51.9765 33.283 52.2471 33.283 52.4684 33.5067C52.6652 33.7056 52.985 33.8796 53.0588 34.1281C53.2802 34.8987 53.9935 34.9981 54.5347 35.3461C55.0759 35.6941 55.6662 35.9427 56.3058 36.1415C57.2651 36.4398 58.2245 36.3901 59.1592 36.3155C60.3399 36.2161 61.4715 35.8432 62.4554 35.0975C62.603 34.9733 62.7998 34.9484 62.972 34.8738C63.4393 34.6253 64.0051 34.6253 64.4233 34.153C64.743 33.805 65.2596 33.6807 65.727 33.457C66.219 34.8987 67.4243 35.6444 68.8264 36.0918C69.3183 36.2409 69.4413 36.4647 69.4659 36.9369C69.4659 37.7821 69.6135 38.2792 69.9333 38.9752C69.4905 39.0746 69.4905 39.0746 69.3429 38.3289C68.8018 38.6023 68.2606 38.8012 67.7194 38.3786C66.8585 38.5775 66.0468 38.2543 65.2596 38.0803C63.5377 37.7075 61.7912 38.0058 60.0693 37.8566C59.3314 37.782 58.6672 38.0306 57.9785 38.1798C56.9207 38.3786 53.5508 38.3786 52.37 38.1798C51.6321 38.0555 50.8449 38.1052 50.0824 38.2295C49.861 38.2543 49.7872 38.2046 49.6396 38.1549C49.0247 37.9312 48.5081 38.4532 47.9423 38.3786C47.4012 38.0555 48.1883 37.6826 47.8439 37.2352C47.598 36.9121 47.7947 36.3155 47.7947 35.9178Z" fill="#FFFFFF"/>
<path d="M86.365 17.1511C86.7094 17.35 86.9307 17.524 87.1767 17.5985C87.8163 17.7725 87.7179 18.4685 88.1115 18.7917C87.6933 19.7362 88.0377 20.9045 87.2013 21.7247C87.0291 21.8987 86.8569 22.0479 86.6356 22.1473C86.5126 22.197 86.2912 22.1473 86.1928 22.0727C86.0206 21.8987 85.9714 21.9982 85.8238 22.0976C85.75 22.1473 85.5286 22.1224 85.4302 22.0479C85.0613 21.7745 84.6431 21.5259 84.3479 21.1779C84.1757 20.979 84.1019 20.5068 84.2003 20.2831C84.5693 19.4628 84.7415 18.4934 85.4056 17.8223C85.6762 17.5985 86.0206 17.3997 86.365 17.1511Z" fill="#FFFFFF"/>
</g>
<path d="M122.352 6.82V16.181C122.352 18.1897 121.823 19.7 120.765 20.712C119.707 21.724 118.166 22.23 116.142 22.23C114.149 22.23 112.615 21.724 111.542 20.712C110.484 19.7 109.955 18.1897 109.955 16.181V6.82H112.416V15.882C112.416 17.3233 112.715 18.389 113.313 19.079C113.926 19.7537 114.869 20.091 116.142 20.091C117.43 20.091 118.373 19.7537 118.971 19.079C119.584 18.389 119.891 17.3233 119.891 15.882V6.82H122.352ZM132.403 6.82C134.013 6.82 135.301 7.24167 136.267 8.085C137.248 8.92833 137.739 10.0937 137.739 11.581C137.739 13.053 137.248 14.2183 136.267 15.077C135.301 15.9203 134.013 16.342 132.403 16.342H129.022V22H126.561V6.82H132.403ZM132.012 14.226C133.1 14.226 133.898 14.0037 134.404 13.559C134.925 13.1143 135.186 12.455 135.186 11.581C135.186 10.707 134.925 10.0477 134.404 9.603C133.898 9.143 133.1 8.913 132.012 8.913H129.022V14.226H132.012ZM146.156 6.59C147.52 6.59 148.701 6.85067 149.698 7.372C150.694 7.878 151.538 8.62933 152.228 9.626L150.572 11.213C149.989 10.3237 149.33 9.68733 148.594 9.304C147.873 8.90533 147.014 8.706 146.018 8.706C144.898 8.706 144.086 8.92067 143.58 9.35C143.074 9.77933 142.821 10.3007 142.821 10.914C142.821 11.3893 142.982 11.8033 143.304 12.156C143.641 12.5087 144.262 12.7847 145.167 12.984L148.249 13.674C149.705 14.0113 150.74 14.5097 151.354 15.169C151.982 15.813 152.297 16.641 152.297 17.653C152.297 18.5883 152.044 19.401 151.538 20.091C151.032 20.7657 150.326 21.2947 149.422 21.678C148.517 22.046 147.467 22.23 146.271 22.23C144.661 22.23 143.288 21.931 142.154 21.333C141.019 20.7197 140.145 19.9607 139.532 19.056L141.234 17.354C141.709 18.1667 142.376 18.8337 143.235 19.355C144.109 19.861 145.144 20.114 146.34 20.114C147.398 20.114 148.226 19.93 148.824 19.562C149.437 19.1787 149.744 18.6343 149.744 17.929C149.744 17.4997 149.59 17.1163 149.284 16.779C148.992 16.4263 148.44 16.158 147.628 15.974L144.293 15.215C142.913 14.9237 141.893 14.4407 141.234 13.766C140.574 13.0913 140.245 12.248 140.245 11.236C140.245 10.3773 140.482 9.59533 140.958 8.89C141.433 8.18467 142.108 7.625 142.982 7.211C143.871 6.797 144.929 6.59 146.156 6.59ZM166.446 6.82V8.936H161.248V22H158.787V8.936H153.589V6.82H166.446ZM175.581 6.82C177.206 6.82 178.494 7.22633 179.445 8.039C180.411 8.85167 180.894 9.948 180.894 11.328C180.894 12.432 180.595 13.3443 179.997 14.065C179.414 14.7703 178.609 15.261 177.582 15.537L181.791 22H178.962L175.098 15.928H171.832V22H169.394V6.82H175.581ZM175.397 13.881C177.359 13.881 178.341 13.053 178.341 11.397C178.341 9.741 177.359 8.913 175.397 8.913H171.832V13.881H175.397ZM184.847 22V6.82H195.841V8.936H187.308V13.306H193.978V15.376H187.308V19.884H196.163V22H184.847ZM197.675 22L203.402 6.82H206.346L212.073 22H209.474L208.048 18.021H201.654L200.205 22H197.675ZM204.161 11.098L202.367 16.02H207.312L205.564 11.144L204.874 8.959H204.805L204.161 11.098ZM230.29 6.82V22H228.036V13.214L228.197 9.028H228.174L223.551 22H221.504L216.881 9.028H216.858L217.042 13.214V22H214.765V6.82H218.422L221.481 15.606L222.539 19.217H222.585L223.666 15.606L226.702 6.82H230.29ZM118.044 28.08V36H116.22V32.364L116.28 29.928H116.256L114.3 36H112.632L110.676 29.928H110.652L110.712 32.364V36H108.876V28.08H111.816L113.064 32.112L113.508 33.792H113.532L113.988 32.124L115.224 28.08H118.044ZM126.722 28.08V32.772C126.722 35.004 125.542 36.12 123.182 36.12C122.022 36.12 121.142 35.844 120.542 35.292C119.942 34.732 119.642 33.892 119.642 32.772V28.08H121.718V32.808C121.718 33.936 122.206 34.5 123.182 34.5C124.166 34.5 124.658 33.936 124.658 32.808V28.08H126.722ZM131.413 27.96C132.149 27.96 132.797 28.076 133.357 28.308C133.925 28.532 134.417 28.864 134.833 29.304L133.837 30.636C133.493 30.276 133.121 30.008 132.721 29.832C132.329 29.648 131.881 29.556 131.377 29.556C130.937 29.556 130.621 29.628 130.429 29.772C130.237 29.916 130.141 30.092 130.141 30.3C130.141 30.468 130.217 30.612 130.369 30.732C130.529 30.844 130.785 30.94 131.137 31.02L132.469 31.32C133.261 31.504 133.841 31.772 134.209 32.124C134.577 32.476 134.761 32.944 134.761 33.528C134.761 34.088 134.617 34.564 134.329 34.956C134.041 35.34 133.645 35.632 133.141 35.832C132.637 36.024 132.061 36.12 131.413 36.12C130.613 36.12 129.881 35.992 129.217 35.736C128.553 35.472 128.025 35.128 127.633 34.704L128.629 33.324C128.925 33.668 129.325 33.956 129.829 34.188C130.333 34.412 130.853 34.524 131.389 34.524C132.221 34.524 132.637 34.28 132.637 33.792C132.637 33.624 132.573 33.484 132.445 33.372C132.325 33.252 132.101 33.152 131.773 33.072L130.309 32.748C129.861 32.652 129.461 32.516 129.109 32.34C128.765 32.164 128.493 31.932 128.293 31.644C128.093 31.348 127.993 30.98 127.993 30.54C127.993 30.044 128.129 29.604 128.401 29.22C128.673 28.828 129.065 28.52 129.577 28.296C130.089 28.072 130.701 27.96 131.413 27.96ZM138.116 28.08V36H136.052V28.08H138.116ZM146.892 33.732C146.66 34.564 146.232 35.172 145.608 35.556C144.992 35.932 144.264 36.12 143.424 36.12C142.616 36.12 141.92 35.96 141.336 35.64C140.76 35.312 140.316 34.844 140.004 34.236C139.692 33.628 139.536 32.896 139.536 32.04C139.536 31.184 139.692 30.452 140.004 29.844C140.316 29.236 140.76 28.772 141.336 28.452C141.92 28.124 142.612 27.96 143.412 27.96C144.236 27.96 144.956 28.136 145.572 28.488C146.188 28.84 146.596 29.392 146.796 30.144L144.984 30.876C144.872 30.388 144.688 30.052 144.432 29.868C144.184 29.676 143.868 29.58 143.484 29.58C142.908 29.58 142.456 29.788 142.128 30.204C141.808 30.62 141.648 31.232 141.648 32.04C141.648 32.848 141.8 33.46 142.104 33.876C142.416 34.292 142.88 34.5 143.496 34.5C143.88 34.5 144.204 34.396 144.468 34.188C144.74 33.972 144.924 33.644 145.02 33.204L146.892 33.732ZM150.376 36L153.16 28.08H155.632L158.404 36H156.28L155.74 34.212H153.004L152.452 36H150.376ZM154.036 30.9L153.436 32.808H155.308L154.732 30.912L154.384 29.664H154.36L154.036 30.9ZM162.386 27.96C163.122 27.96 163.77 28.076 164.33 28.308C164.898 28.532 165.39 28.864 165.806 29.304L164.81 30.636C164.466 30.276 164.094 30.008 163.694 29.832C163.302 29.648 162.854 29.556 162.35 29.556C161.91 29.556 161.594 29.628 161.402 29.772C161.21 29.916 161.114 30.092 161.114 30.3C161.114 30.468 161.19 30.612 161.342 30.732C161.502 30.844 161.758 30.94 162.11 31.02L163.442 31.32C164.234 31.504 164.814 31.772 165.182 32.124C165.55 32.476 165.734 32.944 165.734 33.528C165.734 34.088 165.59 34.564 165.302 34.956C165.014 35.34 164.618 35.632 164.114 35.832C163.61 36.024 163.034 36.12 162.386 36.12C161.586 36.12 160.854 35.992 160.19 35.736C159.526 35.472 158.998 35.128 158.606 34.704L159.602 33.324C159.898 33.668 160.298 33.956 160.802 34.188C161.306 34.412 161.826 34.524 162.362 34.524C163.194 34.524 163.61 34.28 163.61 33.792C163.61 33.624 163.546 33.484 163.418 33.372C163.298 33.252 163.074 33.152 162.746 33.072L161.282 32.748C160.834 32.652 160.434 32.516 160.082 32.34C159.738 32.164 159.466 31.932 159.266 31.644C159.066 31.348 158.966 30.98 158.966 30.54C158.966 30.044 159.102 29.604 159.374 29.22C159.646 28.828 160.038 28.52 160.55 28.296C161.062 28.072 161.674 27.96 162.386 27.96ZM170.12 27.96C170.856 27.96 171.504 28.076 172.064 28.308C172.632 28.532 173.124 28.864 173.54 29.304L172.544 30.636C172.2 30.276 171.828 30.008 171.428 29.832C171.036 29.648 170.588 29.556 170.084 29.556C169.644 29.556 169.328 29.628 169.136 29.772C168.944 29.916 168.848 30.092 168.848 30.3C168.848 30.468 168.924 30.612 169.076 30.732C169.236 30.844 169.492 30.94 169.844 31.02L171.176 31.32C171.968 31.504 172.548 31.772 172.916 32.124C173.284 32.476 173.468 32.944 173.468 33.528C173.468 34.088 173.324 34.564 173.036 34.956C172.748 35.34 172.352 35.632 171.848 35.832C171.344 36.024 170.768 36.12 170.12 36.12C169.32 36.12 168.588 35.992 167.924 35.736C167.26 35.472 166.732 35.128 166.34 34.704L167.336 33.324C167.632 33.668 168.032 33.956 168.536 34.188C169.04 34.412 169.56 34.524 170.096 34.524C170.928 34.524 171.344 34.28 171.344 33.792C171.344 33.624 171.28 33.484 171.152 33.372C171.032 33.252 170.808 33.152 170.48 33.072L169.016 32.748C168.568 32.652 168.168 32.516 167.816 32.34C167.472 32.164 167.2 31.932 167 31.644C166.8 31.348 166.7 30.98 166.7 30.54C166.7 30.044 166.836 29.604 167.108 29.22C167.38 28.828 167.772 28.52 168.284 28.296C168.796 28.072 169.408 27.96 170.12 27.96ZM178.311 27.96C179.111 27.96 179.799 28.124 180.375 28.452C180.959 28.772 181.407 29.236 181.719 29.844C182.031 30.452 182.187 31.184 182.187 32.04C182.187 32.896 182.031 33.628 181.719 34.236C181.407 34.844 180.959 35.312 180.375 35.64C179.799 35.96 179.111 36.12 178.311 36.12C177.503 36.12 176.807 35.96 176.223 35.64C175.647 35.312 175.203 34.844 174.891 34.236C174.579 33.628 174.423 32.896 174.423 32.04C174.423 31.184 174.579 30.452 174.891 29.844C175.203 29.236 175.647 28.772 176.223 28.452C176.807 28.124 177.503 27.96 178.311 27.96ZM178.311 29.58C177.735 29.58 177.295 29.788 176.991 30.204C176.687 30.612 176.535 31.224 176.535 32.04C176.535 32.856 176.687 33.472 176.991 33.888C177.295 34.296 177.735 34.5 178.311 34.5C178.879 34.5 179.315 34.296 179.619 33.888C179.923 33.472 180.075 32.856 180.075 32.04C180.075 31.224 179.923 30.612 179.619 30.204C179.315 29.788 178.879 29.58 178.311 29.58ZM190.626 33.732C190.394 34.564 189.966 35.172 189.342 35.556C188.726 35.932 187.998 36.12 187.158 36.12C186.35 36.12 185.654 35.96 185.07 35.64C184.494 35.312 184.05 34.844 183.738 34.236C183.426 33.628 183.27 32.896 183.27 32.04C183.27 31.184 183.426 30.452 183.738 29.844C184.05 29.236 184.494 28.772 185.07 28.452C185.654 28.124 186.346 27.96 187.146 27.96C187.97 27.96 188.69 28.136 189.306 28.488C189.922 28.84 190.33 29.392 190.53 30.144L188.718 30.876C188.606 30.388 188.422 30.052 188.166 29.868C187.918 29.676 187.602 29.58 187.218 29.58C186.642 29.58 186.19 29.788 185.862 30.204C185.542 30.62 185.382 31.232 185.382 32.04C185.382 32.848 185.534 33.46 185.838 33.876C186.15 34.292 186.614 34.5 187.23 34.5C187.614 34.5 187.938 34.396 188.202 34.188C188.474 33.972 188.658 33.644 188.754 33.204L190.626 33.732ZM193.838 28.08V36H191.774V28.08H193.838ZM194.767 36L197.551 28.08H200.023L202.795 36H200.671L200.131 34.212H197.395L196.843 36H194.767ZM198.427 30.9L197.827 32.808H199.699L199.123 30.912L198.775 29.664H198.751L198.427 30.9ZM209.38 28.08V29.676H206.8V36H204.736V29.676H202.144V28.08H209.38ZM212.624 28.08V36H210.56V28.08H212.624ZM217.932 27.96C218.732 27.96 219.42 28.124 219.996 28.452C220.58 28.772 221.028 29.236 221.34 29.844C221.652 30.452 221.808 31.184 221.808 32.04C221.808 32.896 221.652 33.628 221.34 34.236C221.028 34.844 220.58 35.312 219.996 35.64C219.42 35.96 218.732 36.12 217.932 36.12C217.124 36.12 216.428 35.96 215.844 35.64C215.268 35.312 214.824 34.844 214.512 34.236C214.2 33.628 214.044 32.896 214.044 32.04C214.044 31.184 214.2 30.452 214.512 29.844C214.824 29.236 215.268 28.772 215.844 28.452C216.428 28.124 217.124 27.96 217.932 27.96ZM217.932 29.58C217.356 29.58 216.916 29.788 216.612 30.204C216.308 30.612 216.156 31.224 216.156 32.04C216.156 32.856 216.308 33.472 216.612 33.888C216.916 34.296 217.356 34.5 217.932 34.5C218.5 34.5 218.936 34.296 219.24 33.888C219.544 33.472 219.696 32.856 219.696 32.04C219.696 31.224 219.544 30.612 219.24 30.204C218.936 29.788 218.5 29.58 217.932 29.58ZM230.368 28.08V36H228.076L225.616 31.716L225.016 30.54H225.004L225.052 32.004V36H223.228V28.08H225.52L227.98 32.364L228.58 33.54H228.592L228.544 32.076V28.08H230.368Z" fill="#FFFFFF"/>
<defs>
<clipPath id="clip0">
<rect width="98" height="39" fill="white"/>
</clipPath>
</defs>
</svg>
